<?xml version="1.0" encoding="utf-8"?>
<!-- Generator: Adobe Illustrator 23.0.4, SVG Export Plug-In . SVG Version: 6.00 Build 0)  -->
<svg version="1.1" id="Layer_2" xmlns="http://www.w3.org/2000/svg" xmlns:xlink="http://www.w3.org/1999/xlink" x="0px" y="0px"
	 viewBox="0 0 526 118" style="enable-background:new 0 0 526 118;" xml:space="preserve">
<style type="text/css">
	.st0{fill:#84ffff;}
</style>
<g>
	<path class="st0" d="M58.5,4.5h-54v109L59,59L58.5,4.5z M18.5,82V18.5h29.23L48,50.25L18.5,82z"/>
	<polygon class="st0" points="68.5,4.5 81.5,17.5 107.5,17.5 107.5,50.5 78.5,79.5 78.5,59.5 68.5,59.5 68.5,113.5 123.5,58.5 
		123.5,4.5 	"/>
</g>
<g>
	<polygon class="st0" points="154.5,82.5 167.5,82.5 167.5,44.5 201.5,44.5 201.5,32.5 167.5,32.5 167.5,17.5 201.5,17.5 201.5,4.5 
		154.5,4.5 	"/>
	<path class="st0" d="M209.5,4.5v78h13v-38h26v54L263,113V4.5H209.5z M249,32.5h-26.5v-15H249V32.5z"/>
	<path class="st0" d="M282.5,17.5h26v81L323,113V4.5h-53.5v78h13V17.5z"/>
	<path class="st0" d="M384.5,17V4.5h-53V17h21v79.5L367,111l-0.5-94H384.5z"/>
	<path class="st0" d="M520.5,4.5h-67v81h13v-66h14v66h13v-66l13-0.5v79.5L521,113L520.5,4.5z"/>
	<polygon class="st0" points="392.5,4.5 392.5,86.5 446.5,86.5 446.5,4.5 434.5,4.5 434.5,74.5 404.5,74.5 404.5,4.5 	"/>
</g>
</svg>
